<svg xmlns="http://www.w3.org/2000/svg" width="840" height="808" viewBox="0 0 840 808">
<defs>
    <filter id="softShadow" x="-20%" y="-20%" width="140%" height="140%">
      <feDropShadow dx="0" dy="2" stdDeviation="3" flood-color="#000000" flood-opacity="0.15"/>
    </filter>
    <marker id="arrow-x" markerWidth="10" markerHeight="10" refX="9" refY="3" orient="auto">
      <path d="M0,0 L10,3 L0,6 z" fill="#e57373"/>
    </marker>
    <marker id="arrow-y" markerWidth="10" markerHeight="10" refX="9" refY="3" orient="auto">
      <path d="M0,0 L10,3 L0,6 z" fill="#81c784"/>
    </marker>
    <marker id="arrow-base" markerWidth="10" markerHeight="10" refX="9" refY="3" orient="auto">
      <path d="M0,0 L10,3 L0,6 z" fill="#222"/>
    </marker>
    <style>
      .door { fill: #ffffff; fill-opacity: 0.85; stroke: #2f2f2f; stroke-width: 3; rx: 10; ry: 10; filter: url(#softShadow); }
      .axis-x { stroke: #e57373; stroke-width: 3.2; stroke-linecap: round; marker-end: url(#arrow-x); }
      .axis-y { stroke: #81c784; stroke-width: 3.2; stroke-linecap: round; marker-end: url(#arrow-y); }
      .axis-base { stroke: #222; stroke-opacity: 0.55; stroke-width: 2.2; stroke-linecap: round; marker-end: url(#arrow-base); }
      .caption { font-family: ui-sans-serif, system-ui, -apple-system, Segoe UI, Roboto, Helvetica, Arial, "Noto Sans"; font-size: 16px; fill: #222; text-anchor: middle; opacity: 0.9; }
    </style>
    </defs>
<g>
<line class="axis-base" x1="90.00" y1="190.00" x2="200.00" y2="190.00"/>
<line class="axis-base" x1="90.00" y1="190.00" x2="90.00" y2="80.00"/>
<rect class="door" x="90.00" y="150.00" width="260" height="80" rx="10" ry="10" transform="rotate(0 220.0 190.0)"/>
<line class="axis-x" x1="220.00" y1="190.00" x2="300.00" y2="190.00"/>
<line class="axis-y" x1="220.00" y1="190.00" x2="220.00" y2="110.00"/>
<text class="caption" x="220.00" y="368.00">Center — 0°</text>
</g>

<g>
<line class="axis-base" x1="490.00" y1="190.00" x2="600.00" y2="190.00"/>
<line class="axis-base" x1="490.00" y1="190.00" x2="490.00" y2="80.00"/>
<rect class="door" x="490.00" y="150.00" width="260" height="80" rx="10" ry="10" transform="rotate(90 620.0 190.0)"/>
<line class="axis-x" x1="620.00" y1="190.00" x2="620.00" y2="270.00"/>
<line class="axis-y" x1="620.00" y1="190.00" x2="700.00" y2="190.00"/>
<text class="caption" x="620.00" y="368.00">Center — 90°</text>
</g>

<g>
<line class="axis-base" x1="90.00" y1="530.00" x2="200.00" y2="530.00"/>
<line class="axis-base" x1="90.00" y1="530.00" x2="90.00" y2="420.00"/>
<rect class="door" x="90.00" y="490.00" width="260" height="80" rx="10" ry="10" transform="rotate(0 220.0 530.0)"/>
<line class="axis-x" x1="90.00" y1="530.00" x2="170.00" y2="530.00"/>
<line class="axis-y" x1="90.00" y1="530.00" x2="90.00" y2="450.00"/>
<text class="caption" x="220.00" y="708.00">Hinge — 0°</text>
</g>

<g>
<line class="axis-base" x1="490.00" y1="530.00" x2="600.00" y2="530.00"/>
<line class="axis-base" x1="490.00" y1="530.00" x2="490.00" y2="420.00"/>
<rect class="door" x="360.00" y="620.00" width="260" height="80" rx="10" ry="10" transform="rotate(90 490.0 660.0)"/>
<line class="axis-x" x1="490.00" y1="530.00" x2="490.00" y2="610.00"/>
<line class="axis-y" x1="490.00" y1="530.00" x2="570.00" y2="530.00"/>
<text class="caption" x="620.00" y="708.00">Hinge — 90°</text>
</g>

</svg>