<svg xmlns="http://www.w3.org/2000/svg" width="1500" height="460" viewBox="0 0 1500 460">
<defs>
    <marker id="arrow-red" markerWidth="10" markerHeight="10" refX="9" refY="3" orient="auto">
      <path d="M0,0 L10,3 L0,6 z" fill="#d32f2f"/>
    </marker>
    <marker id="arrow-green" markerWidth="10" markerHeight="10" refX="9" refY="3" orient="auto">
      <path d="M0,0 L10,3 L0,6 z" fill="#388e3c"/>
    </marker>
    <style>
      .arm { fill: #ffffff; fill-opacity: 0.95; stroke: #2f2f2f; stroke-width: 3; }
      .pivot { fill: #2f2f2f; }
      .caption { font-family: ui-sans-serif, system-ui, -apple-system, Segoe UI, Roboto, Helvetica, Arial, "Noto Sans"; font-size: 18px; fill: #222; text-anchor: middle; }
      .axis-x { stroke: #d32f2f; stroke-width: 3; marker-end: url(#arrow-red); stroke-linecap: round; }
      .axis-y { stroke: #388e3c; stroke-width: 3; marker-end: url(#arrow-green); stroke-linecap: round; }
    </style>
    </defs>
<polygon class="arm" points="260.0,195.0 420.0,195.0 420.0,225.0 260.0,225.0"/>
<polygon class="arm" points="420.0,195.0 560.0,195.0 560.0,225.0 420.0,225.0"/>
<polygon class="arm" points="560.0,195.0 640.0,195.0 640.0,225.0 560.0,225.0"/>
<circle class="pivot" cx="260.0" cy="210.0" r="5"/>
<circle class="pivot" cx="420.0" cy="210.0" r="5"/>
<circle class="pivot" cx="560.0" cy="210.0" r="5"/>
<line class="axis-x" x1="560.0" y1="210.0" x2="615.0" y2="210.0"/>
<line class="axis-y" x1="560.0" y1="210.0" x2="560.0" y2="155.0"/>
<text class="caption" x="260" y="390">Neutral — 0°</text>
<polygon class="arm" points="680.0,195.0 840.0,195.0 840.0,225.0 680.0,225.0"/>
<polygon class="arm" points="840.0,195.0 980.0,195.0 980.0,225.0 840.0,225.0"/>
<polygon class="arm" points="971.4,197.7 1036.9,151.8 1054.1,176.4 988.6,222.3"/>
<circle class="pivot" cx="680.0" cy="210.0" r="5"/>
<circle class="pivot" cx="840.0" cy="210.0" r="5"/>
<circle class="pivot" cx="980.0" cy="210.0" r="5"/>
<line class="axis-x" x1="980.0" y1="210.0" x2="1025.1" y2="178.5"/>
<line class="axis-y" x1="980.0" y1="210.0" x2="948.5" y2="164.9"/>
<text class="caption" x="680" y="390">Hand Rotated (CCW)</text>
<polygon class="arm" points="1100.0,195.0 1260.0,195.0 1260.0,225.0 1100.0,225.0"/>
<polygon class="arm" points="1250.4,198.5 1357.6,108.5 1376.9,131.5 1269.6,221.5"/>
<polygon class="arm" points="1352.8,116.1 1373.5,38.9 1402.4,46.6 1381.7,123.9"/>
<circle class="pivot" cx="1100.0" cy="210.0" r="5"/>
<circle class="pivot" cx="1260.0" cy="210.0" r="5"/>
<circle class="pivot" cx="1367.2" cy="120.0" r="5"/>
<line class="axis-x" x1="1367.2" y1="120.0" x2="1381.5" y2="66.9"/>
<line class="axis-y" x1="1367.2" y1="120.0" x2="1314.1" y2="105.8"/>
<text class="caption" x="1100" y="390">Forearm Rotated (Hand Maintained)</text>
</svg>