<svg xmlns="http://www.w3.org/2000/svg" viewBox="0 0 64 64" role="img" aria-label="Articles website icon">
  <defs>
    <linearGradient id="bg" x1="0" y1="0" x2="1" y2="1">
      <stop offset="0%" stop-color="#2563eb" />
      <stop offset="100%" stop-color="#1d4ed8" />
    </linearGradient>
  </defs>
  <rect width="64" height="64" rx="14" fill="url(#bg)" />
  <path d="M15 18a3 3 0 0 1 3-3h13c4.3 0 8 1.6 10 4 2-2.4 5.7-4 10-4h-1a3 3 0 0 1 3 3v28a2 2 0 0 1-2.8 1.8A20 20 0 0 0 41 45c-3 0-5.7.6-8 1.9-2.3-1.3-5-1.9-8-1.9a20 20 0 0 0-7.2 1.8A2 2 0 0 1 15 45V18z" fill="#fff" opacity="0.95"/>
  <path d="M32 19v28" stroke="#1d4ed8" stroke-width="2.5" stroke-linecap="round" />
  <path d="M22 25h7M22 30h7M22 35h7M35 25h7M35 30h7M35 35h7" stroke="#1d4ed8" stroke-width="2" stroke-linecap="round" opacity="0.8"/>
</svg>
